<svg width="38" height="36" viewBox="0 0 38 36" fill="none" xmlns="http://www.w3.org/2000/svg">
<path d="M4.18294 0.913193C2.15134 0.913193 0.498047 2.56648 0.498047 4.59809V14.4245C0.498047 16.0237 1.52736 17.3753 2.95464 17.8839V4.59809C2.95464 3.92007 3.50738 3.36979 4.18294 3.36979H27.2951C26.7866 1.94251 25.435 0.913193 23.8357 0.913193H4.18294ZM9.09614 5.82639C7.07551 5.82639 5.41124 7.49065 5.41124 9.51128V19.3377C5.41124 21.3583 7.07551 23.0226 9.09614 23.0226H15.3624C15.3162 23.4315 15.2376 23.8299 15.2376 24.2509C15.2376 30.3417 20.2015 35.3056 26.2923 35.3056C32.3831 35.3056 37.347 30.3417 37.347 24.2509C37.347 20.4303 35.393 17.0542 32.4338 15.0674V9.51128C32.4338 7.49065 30.7695 5.82639 28.7489 5.82639H9.09614ZM9.09614 8.28298H28.7489C29.4404 8.28298 29.9772 8.81983 29.9772 9.51128V13.8727C28.8191 13.4593 27.5898 13.1962 26.2923 13.1962C21.499 13.1962 17.4414 16.2875 15.9142 20.566H9.09614C8.40468 20.566 7.86784 20.0291 7.86784 19.3377V9.51128C7.86784 8.81983 8.40468 8.28298 9.09614 8.28298ZM26.2923 15.6528C31.0555 15.6528 34.8904 19.4877 34.8904 24.2509C34.8904 29.014 31.0555 32.849 26.2923 32.849C21.5292 32.849 17.6942 29.014 17.6942 24.2509C17.6942 19.4877 21.5292 15.6528 26.2923 15.6528ZM25.064 18.1094V23.0226H20.1508V25.4792H25.064V30.3924H27.5206V25.4792H32.4338V23.0226H27.5206V18.1094H25.064Z" fill="#181E27"/>
</svg>
