<svg width="26" height="26" viewBox="0 0 26 26" fill="none" xmlns="http://www.w3.org/2000/svg">
<path d="M13 0.8125C6.28369 0.8125 0.8125 6.28369 0.8125 13C0.8125 19.7163 6.28369 25.1875 13 25.1875C19.7163 25.1875 25.1875 19.7163 25.1875 13C25.1875 6.28369 19.7163 0.8125 13 0.8125ZM13 2.6875C18.7056 2.6875 23.3125 7.29443 23.3125 13C23.3125 18.7056 18.7056 23.3125 13 23.3125C7.29443 23.3125 2.6875 18.7056 2.6875 13C2.6875 7.29443 7.29443 2.6875 13 2.6875ZM12.0625 8.3125V12.0625H8.3125V13.9375H12.0625V17.6875H13.9375V13.9375H17.6875V12.0625H13.9375V8.3125H12.0625Z" fill="white"/>
</svg>
