<svg width="28" height="33" viewBox="0 0 28 33" fill="none" xmlns="http://www.w3.org/2000/svg">
<path d="M11.4084 0.684906C9.3932 0.684906 7.73307 2.34503 7.73307 4.36021V5.5981H0.363281V8.0547H2.81988V28.9358C2.81988 30.9606 4.48 32.6207 6.50477 32.6207H21.2444C23.2691 32.6207 24.9293 30.9606 24.9293 28.9358V8.0547H27.3859V5.5981H20.0161V4.36021C20.0161 2.34503 18.3559 0.684906 16.3408 0.684906H11.4084ZM11.4084 3.1415H16.3408C17.0317 3.1415 17.5595 3.66929 17.5595 4.36021V5.5981H10.1897V4.36021C10.1897 3.66929 10.7175 3.1415 11.4084 3.1415ZM5.27648 8.0547H22.4727V28.9358C22.4727 29.6267 21.9353 30.1641 21.2444 30.1641H6.50477C5.81386 30.1641 5.27648 29.6267 5.27648 28.9358V8.0547ZM7.73307 10.5113V27.7075H10.1897V10.5113H7.73307ZM12.6463 10.5113V27.7075H15.1029V10.5113H12.6463ZM17.5595 10.5113V27.7075H20.0161V10.5113H17.5595Z" fill="#181E27"/>
</svg>
