<svg width="38" height="30" viewBox="0 0 38 30" fill="none" xmlns="http://www.w3.org/2000/svg">
<path d="M4.07143 0C1.83426 0 0 1.83426 0 4.07143V25.7857C0 28.0229 1.83426 29.8571 4.07143 29.8571H33.9286C36.1657 29.8571 38 28.0229 38 25.7857V4.07143C38 1.83426 36.1657 0 33.9286 0H4.07143ZM4.07143 2.71429H33.9286C34.024 2.71429 34.0982 2.74609 34.183 2.7673L19 13.2746L3.81696 2.7673C3.90179 2.74609 3.97601 2.71429 4.07143 2.71429ZM2.71429 5.30134L19 16.5826L35.2857 5.30134V25.7857C35.2857 26.5491 34.692 27.1429 33.9286 27.1429H4.07143C3.30804 27.1429 2.71429 26.5491 2.71429 25.7857V5.30134Z" fill="#FE0435"/>
</svg>
