<svg width="32" height="32" viewBox="0 0 32 32" fill="none" xmlns="http://www.w3.org/2000/svg">
<path d="M19.375 0.375C12.8345 0.375 7.5 5.70947 7.5 12.25C7.5 13.1963 7.71338 14.0498 7.92676 14.894L0.375 22.4458V31.25H9.875V28.875H12.25V26.5H13.9292L16.731 23.6982C17.5752 23.9116 18.4287 24.125 19.375 24.125C25.9155 24.125 31.25 18.7905 31.25 12.25C31.25 5.70947 25.9155 0.375 19.375 0.375ZM19.375 2.75C24.6353 2.75 28.875 6.98975 28.875 12.25C28.875 17.5103 24.6353 21.75 19.375 21.75C18.4565 21.75 17.5566 21.5737 16.6475 21.3047L15.9795 21.1006L12.9458 24.125H9.875V26.5H7.5V28.875H2.75V23.4292L10.5244 15.6455L10.3203 14.9775C10.0513 14.0684 9.875 13.1685 9.875 12.25C9.875 6.98975 14.1147 2.75 19.375 2.75ZM21.75 7.5C20.4419 7.5 19.375 8.5669 19.375 9.875C19.375 11.1831 20.4419 12.25 21.75 12.25C23.0581 12.25 24.125 11.1831 24.125 9.875C24.125 8.5669 23.0581 7.5 21.75 7.5Z" fill="#FE0435"/>
</svg>
