<svg width="27" height="26" viewBox="0 0 27 26" fill="none" xmlns="http://www.w3.org/2000/svg">
<path d="M10.6926 0.5C16.1962 0.5 20.677 4.98083 20.677 10.4844C20.677 12.8331 19.8276 14.9739 18.4583 16.6813L26.5 23.723L24.9399 25.3004L16.8895 18.25C15.1821 19.6194 13.0414 20.4688 10.6926 20.4688C5.18908 20.4688 0.708246 15.9879 0.708246 10.4844C0.708246 4.98083 5.18908 0.5 10.6926 0.5ZM10.6926 2.71875C6.3938 2.71875 2.927 6.18555 2.927 10.4844C2.927 14.7832 6.3938 18.25 10.6926 18.25C14.9915 18.25 18.4583 14.7832 18.4583 10.4844C18.4583 6.18555 14.9915 2.71875 10.6926 2.71875Z" fill="white"/>
</svg>
