<svg width="24" height="27" viewBox="0 0 24 27" fill="none" xmlns="http://www.w3.org/2000/svg">
<path d="M12 0.75C8.07568 0.75 4.875 3.95068 4.875 7.875C4.875 11.7993 8.07568 15 12 15C15.9243 15 19.125 11.7993 19.125 7.875C19.125 3.95068 15.9243 0.75 12 0.75ZM12 15C5.45947 15 0.125 20.3345 0.125 26.875H2.5C2.5 21.6147 6.73975 17.375 12 17.375C17.2603 17.375 21.5 21.6147 21.5 26.875H23.875C23.875 20.3345 18.5405 15 12 15ZM12 3.125C14.6348 3.125 16.75 5.24023 16.75 7.875C16.75 10.5098 14.6348 12.625 12 12.625C9.36523 12.625 7.25 10.5098 7.25 7.875C7.25 5.24023 9.36523 3.125 12 3.125Z" fill="#FE0435"/>
</svg>
